<svg width="90" height="21" viewBox="0 0 90 21" fill="none" xmlns="http://www.w3.org/2000/svg">
<path fill-rule="evenodd" clip-rule="evenodd" d="M20.896 10.8067C20.896 16.3458 16.4057 20.8362 10.8665 20.8362C5.32734 20.8362 0.836958 16.3458 0.836958 10.8067C0.836958 9.9664 0.940286 9.15028 1.13493 8.37031C0.439397 7.33443 0 5.99793 0 4.2875C0.846468 4.09512 2.02106 4.02762 3.24582 4.28587C5.08531 2.13813 7.81696 0.777123 10.8665 0.777123C11.0095 0.777123 11.1519 0.780117 11.2934 0.786046C8.39974 0.912481 5.85324 2.37654 4.25695 4.57522C6.25513 5.30803 8.18514 7.04336 8.85943 10.6395C7.74503 9.52514 5.11506 7.19603 3.51034 6.79485C5.07049 7.57493 8.6254 10.138 10.3639 14.1498C11.8126 12.1439 15.7129 7.9984 19.7248 7.46349C18.6661 7.40777 16.0473 7.76437 14.0414 9.63655C14.6543 7.74209 17.0836 4.45463 21.8978 6.46053C21.2849 8.24356 18.9558 11.4753 14.5428 10.138C13.1503 10.9735 10.5662 13.4127 11.366 19.1586C11.4774 19.1626 11.5893 19.1646 11.7017 19.1646C16.6447 19.1646 20.6766 15.2637 20.8868 10.3724C20.8929 10.5164 20.896 10.6611 20.896 10.8067ZM9.86458 18.9811C5.66729 18.1299 2.50792 14.4193 2.50792 9.97089C2.50792 9.92653 2.50824 9.88224 2.50886 9.83803C4.39282 11.3109 6.91507 11.7056 8.52511 11.6425C10.1245 14.0946 10.0855 17.3266 9.86458 18.9811Z" fill="#62A111"/>
<path d="M27.3694 19.0989C27.0052 19.0989 26.7219 19.0045 26.5196 18.8156C26.3308 18.6133 26.2363 18.33 26.2363 17.9658V5.96714C26.2363 5.60294 26.3308 5.32641 26.5196 5.13756C26.7219 4.93522 27.0052 4.83405 27.3694 4.83405H34.7548C35.0381 4.83405 35.2539 4.90824 35.4023 5.05662C35.5506 5.19151 35.6248 5.39385 35.6248 5.66364C35.6248 5.94691 35.5506 6.16274 35.4023 6.31112C35.2539 6.4595 35.0381 6.53369 34.7548 6.53369H28.2597V11.0054H34.3096C34.6064 11.0054 34.8222 11.0796 34.9571 11.2279C35.1055 11.3763 35.1797 11.5854 35.1797 11.8552C35.1797 12.1385 35.1055 12.3543 34.9571 12.5027C34.8222 12.6376 34.6064 12.705 34.3096 12.705H28.2597V17.3993H34.7548C35.0381 17.3993 35.2539 17.4735 35.4023 17.6218C35.5506 17.7702 35.6248 17.9793 35.6248 18.2491C35.6248 18.5324 35.5506 18.7482 35.4023 18.8966C35.2539 19.0315 35.0381 19.0989 34.7548 19.0989H27.3694Z" fill="#62A111"/>
<path d="M42.2 19.281C41.1884 19.281 40.3116 19.0719 39.5696 18.6538C38.8412 18.2221 38.2747 17.6218 37.87 16.853C37.4653 16.0706 37.263 15.1533 37.263 14.1012C37.263 13.3188 37.3776 12.6173 37.607 11.9968C37.8363 11.3628 38.16 10.83 38.5782 10.3984C39.0098 9.9667 39.5292 9.63622 40.1362 9.4069C40.7567 9.16409 41.4446 9.04269 42.2 9.04269C42.6722 9.04269 43.1645 9.11688 43.6771 9.26526C44.2032 9.40015 44.6888 9.62947 45.134 9.95321C45.3093 10.0611 45.4172 10.196 45.4577 10.3579C45.5117 10.5063 45.5184 10.6614 45.4779 10.8233C45.4509 10.9851 45.3768 11.1268 45.2554 11.2482C45.1474 11.3561 45.0126 11.4235 44.8507 11.4505C44.6888 11.464 44.5134 11.4168 44.3246 11.3089C44.0009 11.0796 43.6704 10.9177 43.3331 10.8233C42.9959 10.7154 42.6722 10.6614 42.3619 10.6614C41.8763 10.6614 41.4446 10.7423 41.0669 10.9042C40.7027 11.0526 40.3925 11.2752 40.1362 11.5719C39.8799 11.8552 39.6843 12.2127 39.5494 12.6443C39.428 13.076 39.3673 13.5683 39.3673 14.1214C39.3673 15.2275 39.6236 16.0976 40.1362 16.7316C40.6623 17.3521 41.4042 17.6623 42.3619 17.6623C42.6722 17.6623 42.9959 17.6151 43.3331 17.5207C43.6704 17.4262 44.0009 17.2644 44.3246 17.0351C44.5134 16.9271 44.6888 16.8867 44.8507 16.9137C45.0126 16.9406 45.1407 17.0148 45.2351 17.1362C45.343 17.2441 45.4105 17.379 45.4375 17.5409C45.4779 17.6893 45.4712 17.8444 45.4172 18.0063C45.3633 18.1682 45.2486 18.303 45.0733 18.411C44.6416 18.7212 44.1695 18.9438 43.6569 19.0787C43.1578 19.2136 42.6722 19.281 42.2 19.281Z" fill="#62A111"/>
<path d="M51.3868 19.281C50.3886 19.281 49.5253 19.0719 48.7969 18.6538C48.082 18.2356 47.5222 17.6421 47.1175 16.8732C46.7128 16.1043 46.5105 15.2005 46.5105 14.1619C46.5105 13.366 46.6251 12.6578 46.8545 12.0373C47.0838 11.4168 47.4075 10.884 47.8257 10.4388C48.2573 9.98019 48.7699 9.63622 49.3635 9.4069C49.9705 9.16409 50.6449 9.04269 51.3868 9.04269C52.3716 9.04269 53.2214 9.25177 53.9363 9.66994C54.6647 10.0881 55.2313 10.6816 55.636 11.4505C56.0406 12.2059 56.243 13.1097 56.243 14.1619C56.243 14.9442 56.1283 15.6524 55.899 16.2864C55.6697 16.9204 55.3392 17.46 54.9075 17.9051C54.4894 18.3503 53.9768 18.6942 53.3698 18.937C52.7762 19.1664 52.1153 19.281 51.3868 19.281ZM51.3868 17.7028C51.9399 17.7028 52.4255 17.5679 52.8437 17.2981C53.2618 17.0283 53.5856 16.6304 53.8149 16.1043C54.0577 15.5782 54.1791 14.9307 54.1791 14.1619C54.1791 13.0018 53.9228 12.125 53.4102 11.5315C52.8976 10.9379 52.2232 10.6412 51.3868 10.6412C50.8203 10.6412 50.3279 10.7761 49.9098 11.0458C49.4916 11.3021 49.1611 11.6933 48.9183 12.2194C48.689 12.7455 48.5743 13.393 48.5743 14.1619C48.5743 15.3084 48.8306 16.1852 49.3432 16.7923C49.8558 17.3993 50.537 17.7028 51.3868 17.7028Z" fill="#62A111"/>
<path d="M59.8331 19.0989C59.4958 19.0989 59.2328 19.0045 59.0439 18.8156C58.8551 18.6268 58.7607 18.3638 58.7607 18.0265V5.82551C58.7607 5.47479 58.8483 5.21175 59.0237 5.03639C59.2125 4.84754 59.4756 4.75311 59.8128 4.75311C60.1501 4.75311 60.4063 4.84754 60.5817 5.03639C60.7706 5.21175 60.865 5.47479 60.865 5.82551V17.2981H67.1375C67.4342 17.2981 67.6636 17.379 67.8254 17.5409C67.9873 17.6893 68.0682 17.9051 68.0682 18.1884C68.0682 18.4717 67.9873 18.6942 67.8254 18.8561C67.6636 19.018 67.4342 19.0989 67.1375 19.0989H59.8331Z" fill="#62A111"/>
<path d="M70.714 19.2203C70.3902 19.2203 70.1407 19.1259 69.9653 18.937C69.7899 18.7347 69.7023 18.4582 69.7023 18.1075V10.2163C69.7023 9.86553 69.7899 9.59575 69.9653 9.4069C70.1407 9.21805 70.3902 9.12363 70.714 9.12363C71.0377 9.12363 71.2873 9.21805 71.4626 9.4069C71.6515 9.59575 71.7459 9.86553 71.7459 10.2163V18.1075C71.7459 18.4582 71.6582 18.7347 71.4828 18.937C71.3075 19.1259 71.0512 19.2203 70.714 19.2203ZM70.714 7.01931C70.3093 7.01931 69.9923 6.91814 69.763 6.7158C69.5471 6.51346 69.4392 6.23019 69.4392 5.86598C69.4392 5.48828 69.5471 5.205 69.763 5.01615C69.9923 4.81382 70.3093 4.71265 70.714 4.71265C71.1186 4.71265 71.4289 4.81382 71.6447 5.01615C71.874 5.205 71.9887 5.48828 71.9887 5.86598C71.9887 6.23019 71.874 6.51346 71.6447 6.7158C71.4289 6.91814 71.1186 7.01931 70.714 7.01931Z" fill="#62A111"/>
<path d="M76.2411 19.2405C75.9174 19.2405 75.6611 19.1529 75.4722 18.9775C75.2969 18.7887 75.2092 18.5324 75.2092 18.2086V10.803H74.0761C73.8198 10.803 73.6175 10.7356 73.4691 10.6007C73.3207 10.4523 73.2465 10.2567 73.2465 10.0139C73.2465 9.75762 73.3207 9.56203 73.4691 9.42713C73.6175 9.29224 73.8198 9.22479 74.0761 9.22479H75.796L75.2092 9.77111V9.04269C75.2092 7.70726 75.5397 6.70231 76.2007 6.02785C76.8616 5.3399 77.8261 4.93522 79.0941 4.81382L79.7213 4.77335C79.9507 4.74637 80.1328 4.78009 80.2677 4.87452C80.4026 4.96894 80.4902 5.09034 80.5307 5.23873C80.5712 5.38711 80.5712 5.54223 80.5307 5.7041C80.5037 5.85249 80.4363 5.98738 80.3284 6.10878C80.2204 6.23019 80.0856 6.29763 79.9237 6.31112L79.5392 6.33135C78.7434 6.3988 78.1633 6.62812 77.7991 7.01931C77.4349 7.397 77.2528 7.97704 77.2528 8.75942V9.54854L76.9695 9.22479H79.2155C79.4988 9.22479 79.7079 9.29224 79.8428 9.42713C79.9911 9.56203 80.0653 9.75762 80.0653 10.0139C80.0653 10.2567 79.9911 10.4523 79.8428 10.6007C79.7079 10.7356 79.4988 10.803 79.2155 10.803H77.2528V18.2086C77.2528 18.8966 76.9156 19.2405 76.2411 19.2405Z" fill="#62A111"/>
<path d="M85.994 19.281C84.9149 19.281 83.9841 19.0787 83.2017 18.674C82.4328 18.2558 81.8326 17.6691 81.4009 16.9137C80.9827 16.1448 80.7737 15.2342 80.7737 14.1821C80.7737 13.1569 80.9827 12.2599 81.4009 11.491C81.8191 10.7221 82.3924 10.1218 83.1208 9.69017C83.8492 9.25852 84.6788 9.04269 85.6096 9.04269C86.2975 9.04269 86.9113 9.15735 87.4508 9.38667C87.9904 9.60249 88.449 9.92623 88.8267 10.3579C89.2179 10.7761 89.5079 11.2886 89.6968 11.8957C89.8991 12.5027 90.0003 13.1839 90.0003 13.9393C90.0003 14.1686 89.9329 14.344 89.798 14.4654C89.6631 14.5733 89.4607 14.6272 89.1909 14.6272H82.3924V13.3727H88.6244L88.2804 13.656C88.2804 12.9815 88.1792 12.4083 87.9769 11.9361C87.7881 11.464 87.498 11.1065 87.1069 10.8637C86.7292 10.6074 86.257 10.4793 85.6905 10.4793C85.0565 10.4793 84.5169 10.6277 84.0718 10.9244C83.6401 11.2212 83.3096 11.6326 83.0803 12.1587C82.851 12.6848 82.7363 13.2985 82.7363 14V14.1214C82.7363 15.3084 83.0129 16.2055 83.5659 16.8125C84.1325 17.406 84.9486 17.7028 86.0142 17.7028C86.4189 17.7028 86.8438 17.6488 87.289 17.5409C87.7476 17.433 88.1792 17.2509 88.5839 16.9946C88.8132 16.8597 89.0156 16.799 89.1909 16.8125C89.3798 16.826 89.5282 16.8867 89.6361 16.9946C89.7575 17.1025 89.8317 17.2374 89.8587 17.3993C89.8856 17.5611 89.8587 17.7298 89.7777 17.9051C89.6968 18.067 89.5552 18.2154 89.3528 18.3503C88.8942 18.6605 88.3614 18.8966 87.7543 19.0584C87.1473 19.2068 86.5605 19.281 85.994 19.281Z" fill="#62A111"/>
</svg>
