<svg width="24" height="25" viewBox="0 0 24 25" fill="none" xmlns="http://www.w3.org/2000/svg">
<path d="M3 4.5C2.44772 4.5 2 4.94772 2 5.5C2 6.05228 2.44772 6.5 3 6.5V4.5ZM21 6.5C21.5523 6.5 22 6.05228 22 5.5C22 4.94772 21.5523 4.5 21 4.5V6.5ZM3 6.5H21V4.5H3V6.5Z" fill="#8F8F8F"/>
<path d="M3 11.5C2.44772 11.5 2 11.9477 2 12.5C2 13.0523 2.44772 13.5 3 13.5V11.5ZM21 13.5C21.5523 13.5 22 13.0523 22 12.5C22 11.9477 21.5523 11.5 21 11.5V13.5ZM3 13.5H21V11.5H3V13.5Z" fill="#8F8F8F"/>
<path d="M3 18.5C2.44772 18.5 2 18.9477 2 19.5C2 20.0523 2.44772 20.5 3 20.5V18.5ZM21 20.5C21.5523 20.5 22 20.0523 22 19.5C22 18.9477 21.5523 18.5 21 18.5V20.5ZM3 20.5H21V18.5H3V20.5Z" fill="#8F8F8F"/>
</svg>
